<?xml version="1.0" encoding="UTF-8" standalone="no"?>
<!DOCTYPE svg PUBLIC "-//W3C//DTD SVG 1.1//EN"
 "http://www.w3.org/Graphics/SVG/1.1/DTD/svg11.dtd">
<!-- Generated by graphviz version 2.40.1 (20161225.0304)
 -->
<!-- Title: dependencies Pages: 1 -->
<svg width="504pt" height="284pt"
 viewBox="0.00 0.00 504.00 284.00" xmlns="http://www.w3.org/2000/svg" xmlns:xlink="http://www.w3.org/1999/xlink">
<g id="graph0" class="graph" transform="scale(1 1) rotate(0) translate(4 280)">
<title>dependencies</title>
<polygon fill="#ffffff" stroke="transparent" points="-4,4 -4,-280 500,-280 500,4 -4,4"/>
<text text-anchor="start" x="227.0091" y="-42.4" font-family="sans-serif" font-weight="bold" font-size="14.00" fill="#000000">Legend</text>
<polygon fill="#ffffb3" stroke="transparent" points="14,-10 14,-30 34,-30 34,-10 14,-10"/>
<text text-anchor="start" x="37.629" y="-15.4" font-family="sans-serif" font-size="14.00" fill="#000000"> &#160;Declarations</text>
<polygon fill="#8dd3c7" stroke="transparent" points="127,-10 127,-30 147,-30 147,-10 127,-10"/>
<text text-anchor="start" x="150.7251" y="-15.4" font-family="sans-serif" font-size="14.00" fill="#000000"> &#160;Module</text>
<polygon fill="#80b1d3" stroke="transparent" points="213,-10 213,-30 233,-30 233,-10 213,-10"/>
<text text-anchor="start" x="236.7812" y="-15.4" font-family="sans-serif" font-size="14.00" fill="#000000"> &#160;Bootstrap</text>
<polygon fill="#fdb462" stroke="transparent" points="310,-10 310,-30 330,-30 330,-10 310,-10"/>
<text text-anchor="start" x="333.6732" y="-15.4" font-family="sans-serif" font-size="14.00" fill="#000000"> &#160;Providers</text>
<polygon fill="#fb8072" stroke="transparent" points="406,-10 406,-30 426,-30 426,-10 406,-10"/>
<text text-anchor="start" x="429.7258" y="-15.4" font-family="sans-serif" font-size="14.00" fill="#000000"> &#160;Exports</text>
<g id="clust1" class="cluster">
<title>cluster_NgxEchartsModule</title>
<polygon fill="none" stroke="#000000" stroke-dasharray="1,5" points="67,-70 67,-268 429,-268 429,-70 67,-70"/>
</g>
<g id="clust2" class="cluster">
<title>cluster_NgxEchartsModule_declarations</title>
<polygon fill="none" stroke="#000000" points="271,-78 271,-130 421,-130 421,-78 271,-78"/>
</g>
<g id="clust5" class="cluster">
<title>cluster_NgxEchartsModule_exports</title>
<polygon fill="none" stroke="#000000" points="179,-208 179,-260 333,-260 333,-208 179,-208"/>
</g>
<g id="clust7" class="cluster">
<title>cluster_NgxEchartsModule_providers</title>
<polygon fill="none" stroke="#000000" points="75,-78 75,-130 263,-130 263,-78 75,-78"/>
</g>
<!-- NgxEchartsDirective -->
<g id="node1" class="node">
<title>NgxEchartsDirective</title>
<polygon fill="#ffffb3" stroke="#000000" points="413.1671,-122 278.8329,-122 278.8329,-86 413.1671,-86 413.1671,-122"/>
<text text-anchor="middle" x="346" y="-99.8" font-family="Times,serif" font-size="14.00" fill="#000000">NgxEchartsDirective</text>
</g>
<!-- NgxEchartsModule -->
<g id="node2" class="node">
<title>NgxEchartsModule</title>
<polygon fill="#8dd3c7" stroke="#000000" points="318.6345,-187 315.6345,-191 294.6345,-191 291.6345,-187 193.3655,-187 193.3655,-151 318.6345,-151 318.6345,-187"/>
<text text-anchor="middle" x="256" y="-164.8" font-family="Times,serif" font-size="14.00" fill="#000000">NgxEchartsModule</text>
</g>
<!-- NgxEchartsDirective&#45;&gt;NgxEchartsModule -->
<g id="edge1" class="edge">
<title>NgxEchartsDirective&#45;&gt;NgxEchartsModule</title>
<path fill="none" stroke="#000000" d="M298.8668,-122.1061C298.8668,-122.1061 298.8668,-140.991 298.8668,-140.991"/>
<polygon fill="#000000" stroke="#000000" points="295.3668,-140.9909 298.8668,-150.991 302.3668,-140.991 295.3668,-140.9909"/>
</g>
<!-- NgxEchartsDirective  -->
<g id="node3" class="node">
<title>NgxEchartsDirective </title>
<polygon fill="#fb8072" stroke="#000000" points="324.6674,-252 187.3326,-252 187.3326,-216 324.6674,-216 324.6674,-252"/>
<text text-anchor="middle" x="256" y="-229.8" font-family="Times,serif" font-size="14.00" fill="#000000">NgxEchartsDirective </text>
</g>
<!-- NgxEchartsModule&#45;&gt;NgxEchartsDirective  -->
<g id="edge2" class="edge">
<title>NgxEchartsModule&#45;&gt;NgxEchartsDirective </title>
<path fill="none" stroke="#000000" stroke-dasharray="5,2" d="M256,-187.1061C256,-187.1061 256,-205.991 256,-205.991"/>
<polygon fill="#000000" stroke="#000000" points="252.5001,-205.9909 256,-215.991 259.5001,-205.991 252.5001,-205.9909"/>
</g>
<!-- NgxEchartsService -->
<g id="node4" class="node">
<title>NgxEchartsService</title>
<ellipse fill="#fdb462" stroke="#000000" cx="169" cy="-104" rx="85.6512" ry="18"/>
<text text-anchor="middle" x="169" y="-99.8" font-family="Times,serif" font-size="14.00" fill="#000000">NgxEchartsService</text>
</g>
<!-- NgxEchartsService&#45;&gt;NgxEchartsModule -->
<g id="edge3" class="edge">
<title>NgxEchartsService&#45;&gt;NgxEchartsModule</title>
<path fill="none" stroke="#000000" d="M223.8793,-118.104C223.8793,-118.104 223.8793,-140.7209 223.8793,-140.7209"/>
<polygon fill="#000000" stroke="#000000" points="220.3794,-140.7209 223.8793,-150.7209 227.3794,-140.7209 220.3794,-140.7209"/>
</g>
</g>
</svg>
